<svg width="32" height="32" viewBox="0 0 32 32" xmlns="http://www.w3.org/2000/svg">
  <g fill="none" fillRule="evenodd">
    <circle cx="16" cy="16" r="16" fill="#F3BA2F"/>
    <path fill="#FFF" d="M12.116 14.404 16 10.52l3.886 3.886 2.26-2.26L16 6l-6.144 6.144 2.26 2.26zM6 16l2.26-2.26L10.52 16l-2.26 2.26L6 16zm6.116 1.596L16 21.48l3.886-3.886 2.26 2.26L16 26l-6.144-6.144-2.26-2.26zm9.764-5.596L24.14 14.26 26 16l-1.86 1.74-2.26 2.26-2.26-2.26L16 14.14l-3.62 3.62-2.26 2.26-2.26-2.26L6 16l1.86-1.74 2.26-2.26 2.26 2.26L16 17.86l3.62-3.62z"/>
  </g>
</svg>
