<svg width="32" height="32" viewBox="0 0 32 32" xmlns="http://www.w3.org/2000/svg">
  <g fill="none" fillRule="evenodd">
    <circle cx="16" cy="16" r="16" fill="#F5AC37"/>
    <path fill="#FFF" d="M9.277 8h6.552c3.985 0 7.006 2.116 8.13 5.194H26v1.861h-1.611c.031.294.047.594.047.898v.046c0 .342-.02.68-.06 1.01H26v1.862h-2.08C22.767 21.905 19.77 24 15.83 24H9.277v-5.129H7v-1.862h2.277v-1.954H7v-1.861h2.277V8zm1.831 10.871h4.72c2.914 0 5.078-1.387 6.085-3.194H11.108v3.194zm0-5.055h11.723c-.982-1.778-3.135-3.194-6.085-3.194h-4.72v3.194h-.918z"/>
  </g>
</svg>
