<svg width="32" height="32" viewBox="0 0 32 32" xmlns="http://www.w3.org/2000/svg">
  <g fill="none" fillRule="evenodd">
    <circle cx="16" cy="16" r="16" fill="#2775CA"/>
    <path fill="#FFF" d="M15.75 27.5c6.213 0 11.25-5.037 11.25-11.25S21.963 4.999 15.75 4.999 4.5 10.037 4.5 16.25s5.037 11.25 11.25 11.25z"/>
    <path fill="#2775CA" d="M16 25c4.97 0 9-4.03 9-9s-4.03-9-9-9-9 4.03-9 9 4.03 9 9 9z"/>
    <path fill="#FFF" d="M17.75 13.5v-1.25h-1.5V13.5c-1.5.125-2.5 1-2.5 2.25 0 1.375 1.125 2 2.5 2.25v2.5c-.625-.125-1-.5-1-1.125h-1.5c0 1.25 1 2.125 2.5 2.25V22.5h1.5V21.625c1.5-.125 2.5-1 2.5-2.25 0-1.375-1.125-2-2.5-2.25V14.625c.625.125 1 .5 1 1.125h1.5c0-1.25-1-2.125-2.5-2.25zm-1.5 2.75c-.625-.125-1-.375-1-.875s.375-.75 1-.875v1.75zm1.5 3.5c.625.125 1 .375 1 .875s-.375.75-1 .875V19.75z"/>
  </g>
</svg>
